<svg xmlns="http://www.w3.org/2000/svg" viewBox="0 0 812.52 145.63"><defs><style>.cls-1{fill:#495465;}</style></defs><title>Asset 1</title><g id="Layer_2" data-name="Layer 2"><g id="Layer_1-2" data-name="Layer 1"><polyline class="cls-1" points="17.13 0 17.13 24.36 130.02 24.36 88.78 94.61 119.18 94.61 177.55 0"/><polyline class="cls-1" points="160.43 145.63 160.43 121.28 47.53 121.28 88.78 51.03 58.37 51.03 0 145.63"/><path class="cls-1" d="M223.23,24.27V83.63c0,13.83,6.81,18.56,15.38,18.56,9.29,0,14.68-5.66,14.68-18.56V24.27h28.42V80.78c0,32.09-19,41.83-43.57,41.83-25.5,0-43.24-10.32-43.24-41.69V24.27Z"/><path class="cls-1" d="M334.35,120.82V24.27H368.2c10.16,21.75,24.87,51.12,28.92,63h.48c-1.07-10-1.32-27.08-1.32-42.48V24.27h25.79v96.55H389.81c-8.19-17.48-25.66-53.71-30.19-66.45h-.38c.9,9.08,1,27.77,1,44.77v21.68Z"/><path class="cls-1" d="M495.77,45.24h-27.6v-21h83.28v21H524.09v75.58H495.77Z"/><path class="cls-1" d="M668.06,81.75h-44v18.1h49.09l-3.16,21H596.85V24.27h73.07v21H624.08V60.78h44Z"/><path class="cls-1" d="M719.62,24.27h28.09v39.2C754,54.67,768.28,37,777.8,24.27h33.51L775.84,63.83l36.68,57H779.37L756.25,82.1l-8.54,8.8v29.92H719.62Z"/></g></g></svg>