<?xml version="1.0" standalone="no"?>
<!DOCTYPE svg PUBLIC "-//W3C//DTD SVG 20010904//EN"
 "http://www.w3.org/TR/2001/REC-SVG-20010904/DTD/svg10.dtd">
<svg version="1.0" xmlns="http://www.w3.org/2000/svg"
 width="512.000000pt" height="512.000000pt" viewBox="0 0 512.000000 512.000000"
 preserveAspectRatio="xMidYMid meet">
<metadata>
Created by potrace 1.11, written by Peter Selinger 2001-2013
</metadata>
<g transform="translate(0.000000,512.000000) scale(0.100000,-0.100000)"
fill="#000000" stroke="none">
<path d="M634 4207 l1 -322 1522 -1 c838 0 1524 -2 1527 -5 2 -2 -32 -62 -75
-134 -43 -71 -82 -137 -86 -145 -4 -8 -31 -54 -60 -102 -29 -48 -61 -102 -72
-120 -10 -18 -93 -158 -185 -312 -91 -153 -166 -280 -166 -283 0 -2 -5 -9 -10
-16 -6 -7 -67 -106 -135 -222 -69 -115 -129 -217 -135 -225 -5 -8 -18 -31 -29
-50 -11 -19 -56 -95 -100 -169 -45 -74 -79 -136 -77 -138 2 -3 183 -4 401 -4
302 0 400 3 411 12 9 7 24 29 35 48 11 20 27 48 37 63 15 23 280 446 573 916
47 75 118 189 157 252 39 63 76 120 82 127 5 7 10 14 10 17 0 2 38 64 85 138
46 73 110 175 142 227 32 52 67 109 78 126 11 18 33 54 50 81 16 27 33 51 37
52 4 2 8 7 8 12 0 5 66 113 146 241 81 129 148 239 151 246 4 10 -421 13
-2159 12 l-2165 0 1 -322z"/>
<path d="M1794 3160 c-30 -5 -72 -68 -370 -550 -42 -69 -92 -149 -111 -177
-128 -203 -256 -409 -268 -433 -5 -11 -13 -20 -17 -20 -5 0 -8 -4 -8 -9 0 -5
-72 -123 -159 -262 -201 -319 -350 -558 -378 -607 -12 -20 -25 -41 -30 -47 -7
-9 -120 -189 -148 -237 -21 -36 -108 -174 -126 -200 l-19 -27 2167 2 2168 2 0
320 0 320 -1528 0 c-840 0 -1527 2 -1527 5 1 3 16 30 35 60 18 30 53 89 78
130 68 116 230 387 249 418 10 15 21 33 24 40 4 7 49 83 100 169 52 86 94 157
94 158 0 2 23 40 50 84 28 44 50 84 50 88 0 3 6 14 14 22 13 15 23 31 85 141
14 25 29 47 33 48 4 2 8 8 8 12 0 5 45 84 100 175 55 91 100 170 100 176 0 5
5 9 10 9 6 0 10 5 10 10 0 6 12 29 26 51 46 73 75 129 67 129 -82 4 -758 4
-779 0z"/>
</g>
</svg>
